<svg width="36" height="36" viewBox="0 0 36 36" fill="none" xmlns="http://www.w3.org/2000/svg">
<path d="M2.6665 21.3333V5.33329C2.6665 4.62605 2.94746 3.94777 3.44755 3.44767C3.94765 2.94758 4.62593 2.66663 5.33317 2.66663H19.9998" stroke="white" stroke-width="2.66667" stroke-linecap="round" stroke-linejoin="round"/>
<path d="M6.6665 18.6666H5.33317C4.62593 18.6666 3.94765 18.9476 3.44755 19.4477C2.94746 19.9478 2.6665 20.626 2.6665 21.3333C2.6665 22.0405 2.94746 22.7188 3.44755 23.2189C3.94765 23.719 4.62593 24 5.33317 24H6.6665" stroke="white" stroke-width="2.66667" stroke-linecap="round" stroke-linejoin="round"/>
<path d="M29.3333 24H14.6667C13.9594 24 13.2811 24.281 12.781 24.781C12.281 25.2811 12 25.9594 12 26.6667M12 26.6667C12 27.3739 12.281 28.0522 12.781 28.5523C13.2811 29.0524 13.9594 29.3333 14.6667 29.3333H29.3333V8H14.6667C13.9594 8 13.2811 8.28095 12.781 8.78105C12.281 9.28115 12 9.95942 12 10.6667V26.6667Z" stroke="white" stroke-width="2.66667" stroke-linecap="round" stroke-linejoin="round"/>
<path d="M3.6665 21.3333V5.33329C3.6665 4.62605 3.94746 3.94777 4.44755 3.44767C4.94765 2.94758 5.62593 2.66663 6.33317 2.66663H20.9998" stroke="white" stroke-width="2.66667" stroke-linecap="round" stroke-linejoin="round"/>
<path d="M7.6665 18.6666H6.33317C5.62593 18.6666 4.94765 18.9476 4.44755 19.4477C3.94746 19.9478 3.6665 20.626 3.6665 21.3333C3.6665 22.0405 3.94746 22.7188 4.44755 23.2189C4.94765 23.719 5.62593 24 6.33317 24H7.6665" stroke="white" stroke-width="2.66667" stroke-linecap="round" stroke-linejoin="round"/>
<path d="M30.3333 24H15.6667C14.9594 24 14.2811 24.281 13.781 24.781C13.281 25.2811 13 25.9594 13 26.6667M13 26.6667C13 27.3739 13.281 28.0522 13.781 28.5523C14.2811 29.0524 14.9594 29.3333 15.6667 29.3333H30.3333V8H15.6667C14.9594 8 14.2811 8.28095 13.781 8.78105C13.281 9.28115 13 9.95942 13 10.6667V26.6667Z" stroke="white" stroke-width="2.66667" stroke-linecap="round" stroke-linejoin="round"/>
<rect x="20" y="20" width="16" height="16" rx="8" fill="#C7D2FE"/>
<rect x="24" y="24" width="8" height="8" rx="4" fill="#4F46E5"/>
</svg>
