<svg width="126" height="28" viewBox="0 0 126 28" fill="none" xmlns="http://www.w3.org/2000/svg">
<path d="M6.1195 21H1.20494V7.13636H6.16011C7.5546 7.13636 8.75503 7.41391 9.76141 7.96899C10.7678 8.51957 11.5417 9.31158 12.0833 10.345C12.6294 11.3785 12.9024 12.615 12.9024 14.0546C12.9024 15.4988 12.6294 16.7398 12.0833 17.7778C11.5417 18.8158 10.7633 19.6123 9.74787 20.1674C8.73698 20.7225 7.52752 21 6.1195 21ZM4.13608 18.4886H5.99765C6.86412 18.4886 7.59296 18.3351 8.18415 18.0283C8.77985 17.7169 9.22663 17.2362 9.52448 16.5864C9.82685 15.932 9.97803 15.0881 9.97803 14.0546C9.97803 13.0302 9.82685 12.1931 9.52448 11.5432C9.22663 10.8934 8.78211 10.415 8.19092 10.1081C7.59973 9.80123 6.87089 9.64779 6.00442 9.64779H4.13608V18.4886ZM19.7174 21.2031C18.6659 21.2031 17.7566 20.9797 16.9894 20.5329C16.2267 20.0816 15.6378 19.4543 15.2226 18.651C14.8074 17.8432 14.5998 16.9068 14.5998 15.8418C14.5998 14.7677 14.8074 13.829 15.2226 13.0257C15.6378 12.2179 16.2267 11.5906 16.9894 11.1438C17.7566 10.6925 18.6659 10.4669 19.7174 10.4669C20.7689 10.4669 21.676 10.6925 22.4387 11.1438C23.2059 11.5906 23.7971 12.2179 24.2123 13.0257C24.6275 13.829 24.8351 14.7677 24.8351 15.8418C24.8351 16.9068 24.6275 17.8432 24.2123 18.651C23.7971 19.4543 23.2059 20.0816 22.4387 20.5329C21.676 20.9797 20.7689 21.2031 19.7174 21.2031ZM19.731 18.9692C20.2093 18.9692 20.6087 18.8338 20.9291 18.563C21.2496 18.2877 21.491 17.9132 21.6535 17.4393C21.8204 16.9655 21.9039 16.4262 21.9039 15.8214C21.9039 15.2167 21.8204 14.6774 21.6535 14.2036C21.491 13.7297 21.2496 13.3551 20.9291 13.0799C20.6087 12.8046 20.2093 12.6669 19.731 12.6669C19.2481 12.6669 18.8419 12.8046 18.5125 13.0799C18.1876 13.3551 17.9416 13.7297 17.7746 14.2036C17.6122 14.6774 17.5309 15.2167 17.5309 15.8214C17.5309 16.4262 17.6122 16.9655 17.7746 17.4393C17.9416 17.9132 18.1876 18.2877 18.5125 18.563C18.8419 18.8338 19.2481 18.9692 19.731 18.9692ZM31.4081 21.2031C30.3431 21.2031 29.4269 20.9774 28.6598 20.5261C27.8971 20.0703 27.3104 19.4385 26.8997 18.6307C26.4936 17.8229 26.2905 16.8933 26.2905 15.8418C26.2905 14.7767 26.4958 13.8425 26.9065 13.0392C27.3217 12.2314 27.9106 11.6019 28.6733 11.1506C29.436 10.6948 30.3431 10.4669 31.3946 10.4669C32.3017 10.4669 33.0959 10.6316 33.7774 10.961C34.4588 11.2905 34.9981 11.7531 35.3953 12.3488C35.7924 12.9445 36.0113 13.644 36.0519 14.4473H33.3306C33.2539 13.9283 33.0508 13.5108 32.7214 13.1949C32.3964 12.8745 31.97 12.7143 31.442 12.7143C30.9952 12.7143 30.6048 12.8362 30.2709 13.0799C29.9414 13.319 29.6842 13.6688 29.4992 14.1291C29.3141 14.5894 29.2216 15.1468 29.2216 15.8011C29.2216 16.4645 29.3119 17.0286 29.4924 17.4935C29.6774 17.9583 29.9369 18.3126 30.2709 18.5563C30.6048 18.8 30.9952 18.9218 31.442 18.9218C31.7714 18.9218 32.067 18.8541 32.3287 18.7187C32.595 18.5833 32.8139 18.387 32.9854 18.1298C33.1614 17.868 33.2765 17.5544 33.3306 17.1889H36.0519C36.0068 17.9831 35.7901 18.6826 35.402 19.2874C35.0184 19.8876 34.4882 20.3569 33.8112 20.6954C33.1343 21.0338 32.3333 21.2031 31.4081 21.2031ZM44.566 16.5728V10.6023H47.4498V21H44.6811V19.1114H44.5728C44.3381 19.7206 43.9478 20.2102 43.4017 20.5803C42.8602 20.9504 42.199 21.1354 41.4183 21.1354C40.7233 21.1354 40.1118 20.9774 39.5838 20.6615C39.0558 20.3456 38.6429 19.8966 38.345 19.3144C38.0517 18.7323 37.9027 18.035 37.8982 17.2227V10.6023H40.782V16.7082C40.7865 17.322 40.9512 17.8071 41.2761 18.1636C41.6011 18.5202 42.0366 18.6984 42.5826 18.6984C42.9301 18.6984 43.255 18.6194 43.5574 18.4615C43.8598 18.299 44.1035 18.0598 44.2885 17.7439C44.478 17.428 44.5706 17.0377 44.566 16.5728ZM49.7564 21V10.6023H52.5048V12.4368H52.6266C52.8433 11.8275 53.2043 11.3469 53.7097 10.9949C54.2152 10.6429 54.8199 10.4669 55.5239 10.4669C56.237 10.4669 56.844 10.6451 57.3449 11.0017C57.8458 11.3537 58.1798 11.832 58.3468 12.4368H58.4551C58.6672 11.8411 59.0508 11.365 59.6059 11.0084C60.1655 10.6474 60.8266 10.4669 61.5893 10.4669C62.5595 10.4669 63.347 10.776 63.9518 11.3943C64.561 12.008 64.8656 12.879 64.8656 14.0073V21H61.9887V14.5759C61.9887 13.9982 61.8352 13.565 61.5283 13.2762C61.2215 12.9873 60.8379 12.8429 60.3776 12.8429C59.8541 12.8429 59.4456 13.0099 59.1523 13.3439C58.859 13.6733 58.7123 14.1088 58.7123 14.6503V21H55.9166V14.515C55.9166 14.005 55.7699 13.5988 55.4765 13.2965C55.1877 12.9941 54.8064 12.8429 54.3325 12.8429C54.0121 12.8429 53.7233 12.9242 53.466 13.0866C53.2133 13.2446 53.0125 13.468 52.8636 13.7568C52.7146 14.0411 52.6402 14.3751 52.6402 14.7587V21H49.7564ZM71.8821 21.2031C70.8125 21.2031 69.8919 20.9865 69.1202 20.5532C68.353 20.1155 67.7618 19.4972 67.3466 18.6984C66.9314 17.8951 66.7238 16.9452 66.7238 15.8485C66.7238 14.779 66.9314 13.8403 67.3466 13.0325C67.7618 12.2247 68.3462 11.5951 69.0999 11.1438C69.858 10.6925 70.7471 10.4669 71.767 10.4669C72.453 10.4669 73.0915 10.5775 73.6827 10.7986C74.2784 11.0152 74.7974 11.3424 75.2397 11.7801C75.6865 12.2179 76.0339 12.7685 76.2822 13.4319C76.5304 14.0907 76.6545 14.8625 76.6545 15.747V16.539H67.8746V14.7519H73.94C73.94 14.3367 73.8497 13.9689 73.6692 13.6485C73.4887 13.3281 73.2382 13.0776 72.9178 12.8971C72.6019 12.7121 72.2341 12.6195 71.8144 12.6195C71.3766 12.6195 70.9885 12.7211 70.6501 12.9242C70.3161 13.1227 70.0543 13.3912 69.8648 13.7297C69.6753 14.0637 69.5782 14.436 69.5737 14.8467V16.5458C69.5737 17.0602 69.6685 17.5048 69.858 17.8793C70.0521 18.2539 70.3251 18.5427 70.6771 18.7458C71.0291 18.9489 71.4466 19.0504 71.9295 19.0504C72.2499 19.0504 72.5432 19.0053 72.8095 18.915C73.0757 18.8248 73.3036 18.6894 73.4932 18.5089C73.6827 18.3284 73.8271 18.1072 73.9264 17.8455L76.5935 18.0215C76.4582 18.6623 76.1806 19.2219 75.7609 19.7003C75.3457 20.1741 74.8087 20.5442 74.1498 20.8105C73.4954 21.0722 72.7395 21.2031 71.8821 21.2031ZM81.4201 14.9888V21H78.5363V10.6023H81.2847V12.4368H81.4066C81.6367 11.832 82.0226 11.3537 82.5641 11.0017C83.1057 10.6451 83.7623 10.4669 84.534 10.4669C85.2561 10.4669 85.8856 10.6248 86.4226 10.9407C86.9597 11.2566 87.3771 11.7079 87.675 12.2946C87.9728 12.8768 88.1218 13.5718 88.1218 14.3796V21H85.238V14.894C85.2425 14.2577 85.0801 13.7613 84.7506 13.4048C84.4212 13.0438 83.9676 12.8632 83.39 12.8632C83.0019 12.8632 82.6589 12.9467 82.361 13.1137C82.0677 13.2807 81.8375 13.5244 81.6706 13.8448C81.5081 14.1607 81.4246 14.542 81.4201 14.9888ZM95.9251 10.6023V12.7685H89.6635V10.6023H95.9251ZM91.085 8.11115H93.9688V17.8049C93.9688 18.0711 94.0094 18.2787 94.0906 18.4276C94.1719 18.5721 94.2847 18.6736 94.4291 18.7323C94.578 18.7909 94.7495 18.8203 94.9436 18.8203C95.079 18.8203 95.2143 18.809 95.3497 18.7864C95.4851 18.7593 95.5889 18.739 95.6611 18.7255L96.1147 20.8714C95.9703 20.9165 95.7672 20.9684 95.5054 21.0271C95.2437 21.0903 94.9255 21.1286 94.5509 21.1422C93.856 21.1692 93.2467 21.0767 92.7232 20.8646C92.2042 20.6525 91.8003 20.3231 91.5115 19.8763C91.2227 19.4295 91.0805 18.8654 91.085 18.1839V8.11115ZM98.0812 21V7.13636H101.012V18.5833H106.956V21H98.0812ZM108.897 7.13636H112.512L116.33 16.451H116.492L120.31 7.13636H123.925V21H121.082V11.9765H120.967L117.379 20.9323H115.443L111.855 11.9426H111.74V21H108.897V7.13636Z" fill="#111827"/>
</svg>
