<svg width="87" height="28" viewBox="0 0 87 28" fill="none" xmlns="http://www.w3.org/2000/svg">
<path d="M6.1195 21H1.20494V7.13636H6.16011C7.5546 7.13636 8.75503 7.41391 9.76141 7.96899C10.7678 8.51957 11.5417 9.31158 12.0833 10.345C12.6294 11.3785 12.9024 12.615 12.9024 14.0546C12.9024 15.4988 12.6294 16.7398 12.0833 17.7778C11.5417 18.8158 10.7633 19.6123 9.74787 20.1674C8.73698 20.7225 7.52752 21 6.1195 21ZM4.13608 18.4886H5.99765C6.86412 18.4886 7.59296 18.3351 8.18415 18.0283C8.77985 17.7169 9.22663 17.2362 9.52448 16.5864C9.82685 15.932 9.97803 15.0881 9.97803 14.0546C9.97803 13.0302 9.82685 12.1931 9.52448 11.5432C9.22663 10.8934 8.78211 10.415 8.19092 10.1081C7.59973 9.80123 6.87089 9.64779 6.00442 9.64779H4.13608V18.4886ZM19.7581 21.2031C18.6885 21.2031 17.7679 20.9865 16.9962 20.5532C16.229 20.1155 15.6378 19.4972 15.2226 18.6984C14.8074 17.8951 14.5998 16.9452 14.5998 15.8485C14.5998 14.779 14.8074 13.8403 15.2226 13.0325C15.6378 12.2247 16.2222 11.5951 16.9758 11.1438C17.734 10.6925 18.6231 10.4669 19.643 10.4669C20.3289 10.4669 20.9675 10.5775 21.5587 10.7986C22.1544 11.0152 22.6734 11.3424 23.1157 11.7801C23.5624 12.2179 23.9099 12.7685 24.1581 13.4319C24.4063 14.0907 24.5304 14.8625 24.5304 15.747V16.539H15.7506V14.7519H21.8159C21.8159 14.3367 21.7257 13.9689 21.5452 13.6485C21.3646 13.3281 21.1142 13.0776 20.7938 12.8971C20.4779 12.7121 20.1101 12.6195 19.6904 12.6195C19.2526 12.6195 18.8645 12.7211 18.526 12.9242C18.1921 13.1227 17.9303 13.3912 17.7408 13.7297C17.5512 14.0637 17.4542 14.436 17.4497 14.8467V16.5458C17.4497 17.0602 17.5445 17.5048 17.734 17.8793C17.9281 18.2539 18.2011 18.5427 18.5531 18.7458C18.9051 18.9489 19.3226 19.0504 19.8054 19.0504C20.1259 19.0504 20.4192 19.0053 20.6855 18.915C20.9517 18.8248 21.1796 18.6894 21.3692 18.5089C21.5587 18.3284 21.7031 18.1072 21.8024 17.8455L24.4695 18.0215C24.3341 18.6623 24.0566 19.2219 23.6369 19.7003C23.2217 20.1741 22.6847 20.5442 22.0258 20.8105C21.3714 21.0722 20.6155 21.2031 19.7581 21.2031ZM31.1509 21.2031C30.0813 21.2031 29.1607 20.9865 28.389 20.5532C27.6218 20.1155 27.0306 19.4972 26.6154 18.6984C26.2002 17.8951 25.9926 16.9452 25.9926 15.8485C25.9926 14.779 26.2002 13.8403 26.6154 13.0325C27.0306 12.2247 27.615 11.5951 28.3687 11.1438C29.1268 10.6925 30.0159 10.4669 31.0358 10.4669C31.7218 10.4669 32.3603 10.5775 32.9515 10.7986C33.5472 11.0152 34.0662 11.3424 34.5085 11.7801C34.9553 12.2179 35.3027 12.7685 35.551 13.4319C35.7992 14.0907 35.9233 14.8625 35.9233 15.747V16.539H27.1434V14.7519H33.2088C33.2088 14.3367 33.1185 13.9689 32.938 13.6485C32.7575 13.3281 32.507 13.0776 32.1866 12.8971C31.8707 12.7121 31.5029 12.6195 31.0832 12.6195C30.6454 12.6195 30.2573 12.7211 29.9189 12.9242C29.5849 13.1227 29.3231 13.3912 29.1336 13.7297C28.9441 14.0637 28.847 14.436 28.8425 14.8467V16.5458C28.8425 17.0602 28.9373 17.5048 29.1268 17.8793C29.3209 18.2539 29.5939 18.5427 29.9459 18.7458C30.2979 18.9489 30.7154 19.0504 31.1983 19.0504C31.5187 19.0504 31.812 19.0053 32.0783 18.915C32.3445 18.8248 32.5724 18.6894 32.762 18.5089C32.9515 18.3284 33.0959 18.1072 33.1952 17.8455L35.8623 18.0215C35.727 18.6623 35.4494 19.2219 35.0297 19.7003C34.6145 20.1741 34.0775 20.5442 33.4186 20.8105C32.7642 21.0722 32.0083 21.2031 31.1509 21.2031ZM37.8051 24.8991V10.6023H40.6483V12.3488H40.7769C40.9033 12.069 41.086 11.7847 41.3252 11.4958C41.5689 11.2025 41.8848 10.9588 42.2729 10.7647C42.6655 10.5662 43.1529 10.4669 43.7351 10.4669C44.4933 10.4669 45.1928 10.6655 45.8336 11.0626C46.4744 11.4552 46.9866 12.0487 47.3702 12.8429C47.7538 13.6327 47.9456 14.6233 47.9456 15.8147C47.9456 16.9745 47.7584 17.9538 47.3838 18.7526C47.0137 19.5468 46.5083 20.1493 45.8674 20.56C45.2311 20.9662 44.5181 21.1692 43.7283 21.1692C43.1687 21.1692 42.6926 21.0767 42.3 20.8917C41.9119 20.7067 41.5937 20.4742 41.3455 20.1944C41.0973 19.9101 40.9078 19.6236 40.7769 19.3347H40.6889V24.8991H37.8051ZM40.628 15.8011C40.628 16.4194 40.7137 16.9587 40.8852 17.419C41.0567 17.8793 41.3049 18.2381 41.6298 18.4953C41.9548 18.7481 42.3496 18.8744 42.8145 18.8744C43.2838 18.8744 43.6809 18.7458 44.0059 18.4886C44.3308 18.2268 44.5768 17.8658 44.7437 17.4055C44.9152 16.9406 45.001 16.4059 45.001 15.8011C45.001 15.2009 44.9175 14.6729 44.7505 14.2171C44.5835 13.7613 44.3376 13.4048 44.0126 13.1475C43.6877 12.8903 43.2883 12.7617 42.8145 12.7617C42.3451 12.7617 41.948 12.8858 41.6231 13.134C41.3026 13.3822 41.0567 13.7342 40.8852 14.19C40.7137 14.6458 40.628 15.1829 40.628 15.8011Z" fill="white"/>
<path d="M62.1545 11.99H59.1895C59.1354 11.6064 59.0248 11.2657 58.8578 10.9678C58.6909 10.6655 58.4765 10.4082 58.2147 10.1961C57.953 9.984 57.6506 9.82154 57.3077 9.70872C56.9692 9.5959 56.6014 9.53948 56.2043 9.53948C55.4867 9.53948 54.8617 9.71774 54.3291 10.0743C53.7966 10.4263 53.3837 10.9407 53.0903 11.6177C52.797 12.2901 52.6503 13.1069 52.6503 14.0682C52.6503 15.0565 52.797 15.8869 53.0903 16.5593C53.3882 17.2317 53.8034 17.7394 54.3359 18.0824C54.8684 18.4254 55.4844 18.5969 56.1839 18.5969C56.5766 18.5969 56.9399 18.545 57.2738 18.4412C57.6123 18.3374 57.9124 18.1862 58.1741 17.9876C58.4359 17.7846 58.6525 17.5386 58.824 17.2498C59 16.961 59.1218 16.6315 59.1895 16.2615L62.1545 16.275C62.0778 16.9113 61.886 17.5251 61.5791 18.1163C61.2768 18.7029 60.8683 19.2287 60.3539 19.6935C59.8439 20.1538 59.2347 20.5194 58.5261 20.7902C57.8221 21.0564 57.0256 21.1895 56.1366 21.1895C54.9 21.1895 53.7944 20.9097 52.8196 20.3501C51.8493 19.7905 51.0821 18.9805 50.518 17.9199C49.9584 16.8594 49.6786 15.5755 49.6786 14.0682C49.6786 12.5564 49.9629 11.2702 50.5315 10.2097C51.1002 9.14912 51.8719 8.34131 52.8467 7.78622C53.8214 7.22662 54.9181 6.94682 56.1366 6.94682C56.9399 6.94682 57.6845 7.05964 58.3704 7.28529C59.0609 7.51093 59.6724 7.84038 60.2049 8.27361C60.7375 8.70234 61.1707 9.22809 61.5047 9.85087C61.8431 10.4737 62.0597 11.1867 62.1545 11.99ZM64.2022 21V10.6023H67.086V21H64.2022ZM65.6509 9.26194C65.2222 9.26194 64.8544 9.11978 64.5475 8.83547C64.2451 8.54665 64.0939 8.20141 64.0939 7.79976C64.0939 7.40262 64.2451 7.0619 64.5475 6.77759C64.8544 6.48876 65.2222 6.34435 65.6509 6.34435C66.0796 6.34435 66.4452 6.48876 66.7475 6.77759C67.0544 7.0619 67.2078 7.40262 67.2078 7.79976C67.2078 8.20141 67.0544 8.54665 66.7475 8.83547C66.4452 9.11978 66.0796 9.26194 65.6509 9.26194ZM74.9266 10.6023V12.7685H68.6649V10.6023H74.9266ZM70.0865 8.11115H72.9702V17.8049C72.9702 18.0711 73.0109 18.2787 73.0921 18.4276C73.1733 18.5721 73.2862 18.6736 73.4306 18.7323C73.5795 18.7909 73.751 18.8203 73.945 18.8203C74.0804 18.8203 74.2158 18.809 74.3512 18.7864C74.4866 18.7593 74.5904 18.739 74.6626 18.7255L75.1161 20.8714C74.9717 20.9165 74.7686 20.9684 74.5069 21.0271C74.2451 21.0903 73.927 21.1286 73.5524 21.1422C72.8574 21.1692 72.2482 21.0767 71.7247 20.8646C71.2057 20.6525 70.8018 20.3231 70.513 19.8763C70.2241 19.4295 70.082 18.8654 70.0865 18.1839V8.11115ZM81.4319 21.2031C80.3624 21.2031 79.4418 20.9865 78.67 20.5532C77.9029 20.1155 77.3117 19.4972 76.8965 18.6984C76.4813 17.8951 76.2737 16.9452 76.2737 15.8485C76.2737 14.779 76.4813 13.8403 76.8965 13.0325C77.3117 12.2247 77.8961 11.5951 78.6497 11.1438C79.4079 10.6925 80.2969 10.4669 81.3169 10.4669C82.0028 10.4669 82.6414 10.5775 83.2326 10.7986C83.8283 11.0152 84.3473 11.3424 84.7895 11.7801C85.2363 12.2179 85.5838 12.7685 85.832 13.4319C86.0802 14.0907 86.2043 14.8625 86.2043 15.747V16.539H77.4245V14.7519H83.4898C83.4898 14.3367 83.3996 13.9689 83.219 13.6485C83.0385 13.3281 82.7881 13.0776 82.4677 12.8971C82.1517 12.7121 81.7839 12.6195 81.3642 12.6195C80.9265 12.6195 80.5384 12.7211 80.1999 12.9242C79.866 13.1227 79.6042 13.3912 79.4147 13.7297C79.2251 14.0637 79.1281 14.436 79.1236 14.8467V16.5458C79.1236 17.0602 79.2184 17.5048 79.4079 17.8793C79.602 18.2539 79.875 18.5427 80.227 18.7458C80.579 18.9489 80.9964 19.0504 81.4793 19.0504C81.7997 19.0504 82.0931 19.0053 82.3593 18.915C82.6256 18.8248 82.8535 18.6894 83.043 18.5089C83.2326 18.3284 83.377 18.1072 83.4763 17.8455L86.1434 18.0215C86.008 18.6623 85.7305 19.2219 85.3108 19.7003C84.8956 20.1741 84.3586 20.5442 83.6997 20.8105C83.0453 21.0722 82.2894 21.2031 81.4319 21.2031Z" fill="#4F46E5"/>
</svg>
