<svg width="128" height="36" viewBox="0 0 128 36" fill="none" xmlns="http://www.w3.org/2000/svg">
<path d="M46.1195 25H41.2049V11.1364H46.1601C47.5546 11.1364 48.755 11.4139 49.7614 11.969C50.7678 12.5196 51.5417 13.3116 52.0833 14.345C52.6294 15.3785 52.9024 16.615 52.9024 18.0546C52.9024 19.4988 52.6294 20.7398 52.0833 21.7778C51.5417 22.8158 50.7633 23.6123 49.7479 24.1674C48.737 24.7225 47.5275 25 46.1195 25ZM44.1361 22.4886H45.9976C46.8641 22.4886 47.593 22.3351 48.1841 22.0283C48.7799 21.7169 49.2266 21.2362 49.5245 20.5864C49.8268 19.932 49.978 19.0881 49.978 18.0546C49.978 17.0302 49.8268 16.1931 49.5245 15.5432C49.2266 14.8934 48.7821 14.415 48.1909 14.1081C47.5997 13.8012 46.8709 13.6478 46.0044 13.6478H44.1361V22.4886ZM59.7581 25.2031C58.6885 25.2031 57.7679 24.9865 56.9962 24.5532C56.229 24.1155 55.6378 23.4972 55.2226 22.6984C54.8074 21.8951 54.5998 20.9452 54.5998 19.8485C54.5998 18.779 54.8074 17.8403 55.2226 17.0325C55.6378 16.2247 56.2222 15.5951 56.9758 15.1438C57.734 14.6925 58.6231 14.4669 59.643 14.4669C60.3289 14.4669 60.9675 14.5775 61.5587 14.7986C62.1544 15.0152 62.6734 15.3424 63.1157 15.7801C63.5624 16.2179 63.9099 16.7685 64.1581 17.4319C64.4063 18.0907 64.5304 18.8625 64.5304 19.747V20.539H55.7506V18.7519H61.8159C61.8159 18.3367 61.7257 17.9689 61.5452 17.6485C61.3646 17.3281 61.1142 17.0776 60.7938 16.8971C60.4779 16.7121 60.1101 16.6195 59.6904 16.6195C59.2526 16.6195 58.8645 16.7211 58.526 16.9242C58.1921 17.1227 57.9303 17.3912 57.7408 17.7297C57.5512 18.0637 57.4542 18.436 57.4497 18.8467V20.5458C57.4497 21.0602 57.5445 21.5048 57.734 21.8793C57.9281 22.2539 58.2011 22.5427 58.5531 22.7458C58.9051 22.9489 59.3226 23.0504 59.8054 23.0504C60.1259 23.0504 60.4192 23.0053 60.6855 22.915C60.9517 22.8248 61.1796 22.6894 61.3692 22.5089C61.5587 22.3284 61.7031 22.1072 61.8024 21.8455L64.4695 22.0215C64.3341 22.6623 64.0566 23.2219 63.6369 23.7003C63.2217 24.1741 62.6847 24.5442 62.0258 24.8105C61.3714 25.0722 60.6155 25.2031 59.7581 25.2031ZM71.1509 25.2031C70.0813 25.2031 69.1607 24.9865 68.389 24.5532C67.6218 24.1155 67.0306 23.4972 66.6154 22.6984C66.2002 21.8951 65.9926 20.9452 65.9926 19.8485C65.9926 18.779 66.2002 17.8403 66.6154 17.0325C67.0306 16.2247 67.615 15.5951 68.3687 15.1438C69.1268 14.6925 70.0159 14.4669 71.0358 14.4669C71.7218 14.4669 72.3603 14.5775 72.9515 14.7986C73.5472 15.0152 74.0662 15.3424 74.5085 15.7801C74.9553 16.2179 75.3027 16.7685 75.551 17.4319C75.7992 18.0907 75.9233 18.8625 75.9233 19.747V20.539H67.1434V18.7519H73.2088C73.2088 18.3367 73.1185 17.9689 72.938 17.6485C72.7575 17.3281 72.507 17.0776 72.1866 16.8971C71.8707 16.7121 71.5029 16.6195 71.0832 16.6195C70.6454 16.6195 70.2573 16.7211 69.9189 16.9242C69.5849 17.1227 69.3231 17.3912 69.1336 17.7297C68.9441 18.0637 68.847 18.436 68.8425 18.8467V20.5458C68.8425 21.0602 68.9373 21.5048 69.1268 21.8793C69.3209 22.2539 69.5939 22.5427 69.9459 22.7458C70.2979 22.9489 70.7154 23.0504 71.1983 23.0504C71.5187 23.0504 71.812 23.0053 72.0783 22.915C72.3445 22.8248 72.5724 22.6894 72.762 22.5089C72.9515 22.3284 73.0959 22.1072 73.1952 21.8455L75.8623 22.0215C75.727 22.6623 75.4494 23.2219 75.0297 23.7003C74.6145 24.1741 74.0775 24.5442 73.4186 24.8105C72.7642 25.0722 72.0083 25.2031 71.1509 25.2031ZM77.8051 28.8991V14.6023H80.6483V16.3488H80.7769C80.9033 16.069 81.086 15.7847 81.3252 15.4958C81.5689 15.2025 81.8848 14.9588 82.2729 14.7647C82.6655 14.5662 83.1529 14.4669 83.7351 14.4669C84.4933 14.4669 85.1928 14.6655 85.8336 15.0626C86.4744 15.4552 86.9866 16.0487 87.3702 16.8429C87.7538 17.6327 87.9456 18.6233 87.9456 19.8147C87.9456 20.9745 87.7584 21.9538 87.3838 22.7526C87.0137 23.5468 86.5083 24.1493 85.8674 24.56C85.2311 24.9662 84.5181 25.1692 83.7283 25.1692C83.1687 25.1692 82.6926 25.0767 82.3 24.8917C81.9119 24.7067 81.5937 24.4742 81.3455 24.1944C81.0973 23.9101 80.9078 23.6236 80.7769 23.3347H80.6889V28.8991H77.8051ZM80.628 19.8011C80.628 20.4194 80.7137 20.9587 80.8852 21.419C81.0567 21.8793 81.3049 22.2381 81.6298 22.4953C81.9548 22.7481 82.3496 22.8744 82.8145 22.8744C83.2838 22.8744 83.6809 22.7458 84.0059 22.4886C84.3308 22.2268 84.5768 21.8658 84.7437 21.4055C84.9152 20.9406 85.001 20.4059 85.001 19.8011C85.001 19.2009 84.9175 18.6729 84.7505 18.2171C84.5835 17.7613 84.3376 17.4048 84.0126 17.1475C83.6877 16.8903 83.2883 16.7617 82.8145 16.7617C82.3451 16.7617 81.948 16.8858 81.6231 17.134C81.3026 17.3822 81.0567 17.7342 80.8852 18.19C80.7137 18.6458 80.628 19.1829 80.628 19.8011Z" fill="#111827"/>
<path d="M102.155 15.99H99.1895C99.1354 15.6064 99.0248 15.2657 98.8578 14.9678C98.6909 14.6655 98.4765 14.4082 98.2147 14.1961C97.953 13.984 97.6506 13.8215 97.3077 13.7087C96.9692 13.5959 96.6014 13.5395 96.2043 13.5395C95.4867 13.5395 94.8617 13.7177 94.3291 14.0743C93.7966 14.4263 93.3837 14.9407 93.0903 15.6177C92.797 16.2901 92.6503 17.1069 92.6503 18.0682C92.6503 19.0565 92.797 19.8869 93.0903 20.5593C93.3882 21.2317 93.8034 21.7394 94.3359 22.0824C94.8684 22.4254 95.4844 22.5969 96.1839 22.5969C96.5766 22.5969 96.9399 22.545 97.2738 22.4412C97.6123 22.3374 97.9124 22.1862 98.1741 21.9876C98.4359 21.7846 98.6525 21.5386 98.824 21.2498C99 20.961 99.1218 20.6315 99.1895 20.2615L102.155 20.275C102.078 20.9113 101.886 21.5251 101.579 22.1163C101.277 22.7029 100.868 23.2287 100.354 23.6935C99.8439 24.1538 99.2347 24.5194 98.5261 24.7902C97.8221 25.0564 97.0256 25.1895 96.1366 25.1895C94.9 25.1895 93.7944 24.9097 92.8196 24.3501C91.8493 23.7905 91.0821 22.9805 90.518 21.9199C89.9584 20.8594 89.6786 19.5755 89.6786 18.0682C89.6786 16.5564 89.9629 15.2702 90.5315 14.2097C91.1002 13.1491 91.8719 12.3413 92.8467 11.7862C93.8214 11.2266 94.9181 10.9468 96.1366 10.9468C96.9399 10.9468 97.6845 11.0596 98.3704 11.2853C99.0609 11.5109 99.6724 11.8404 100.205 12.2736C100.737 12.7023 101.171 13.2281 101.505 13.8509C101.843 14.4737 102.06 15.1867 102.155 15.99ZM104.202 25V14.6023H107.086V25H104.202ZM105.651 13.2619C105.222 13.2619 104.854 13.1198 104.547 12.8355C104.245 12.5466 104.094 12.2014 104.094 11.7998C104.094 11.4026 104.245 11.0619 104.547 10.7776C104.854 10.4888 105.222 10.3443 105.651 10.3443C106.08 10.3443 106.445 10.4888 106.748 10.7776C107.054 11.0619 107.208 11.4026 107.208 11.7998C107.208 12.2014 107.054 12.5466 106.748 12.8355C106.445 13.1198 106.08 13.2619 105.651 13.2619ZM114.927 14.6023V16.7685H108.665V14.6023H114.927ZM110.087 12.1112H112.97V21.8049C112.97 22.0711 113.011 22.2787 113.092 22.4276C113.173 22.5721 113.286 22.6736 113.431 22.7323C113.579 22.7909 113.751 22.8203 113.945 22.8203C114.08 22.8203 114.216 22.809 114.351 22.7864C114.487 22.7593 114.59 22.739 114.663 22.7255L115.116 24.8714C114.972 24.9165 114.769 24.9684 114.507 25.0271C114.245 25.0903 113.927 25.1286 113.552 25.1422C112.857 25.1692 112.248 25.0767 111.725 24.8646C111.206 24.6525 110.802 24.3231 110.513 23.8763C110.224 23.4295 110.082 22.8654 110.087 22.1839V12.1112ZM121.432 25.2031C120.362 25.2031 119.442 24.9865 118.67 24.5532C117.903 24.1155 117.312 23.4972 116.896 22.6984C116.481 21.8951 116.274 20.9452 116.274 19.8485C116.274 18.779 116.481 17.8403 116.896 17.0325C117.312 16.2247 117.896 15.5951 118.65 15.1438C119.408 14.6925 120.297 14.4669 121.317 14.4669C122.003 14.4669 122.641 14.5775 123.233 14.7986C123.828 15.0152 124.347 15.3424 124.79 15.7801C125.236 16.2179 125.584 16.7685 125.832 17.4319C126.08 18.0907 126.204 18.8625 126.204 19.747V20.539H117.424V18.7519H123.49C123.49 18.3367 123.4 17.9689 123.219 17.6485C123.039 17.3281 122.788 17.0776 122.468 16.8971C122.152 16.7121 121.784 16.6195 121.364 16.6195C120.926 16.6195 120.538 16.7211 120.2 16.9242C119.866 17.1227 119.604 17.3912 119.415 17.7297C119.225 18.0637 119.128 18.436 119.124 18.8467V20.5458C119.124 21.0602 119.218 21.5048 119.408 21.8793C119.602 22.2539 119.875 22.5427 120.227 22.7458C120.579 22.9489 120.996 23.0504 121.479 23.0504C121.8 23.0504 122.093 23.0053 122.359 22.915C122.626 22.8248 122.854 22.6894 123.043 22.5089C123.233 22.3284 123.377 22.1072 123.476 21.8455L126.143 22.0215C126.008 22.6623 125.73 23.2219 125.311 23.7003C124.896 24.1741 124.359 24.5442 123.7 24.8105C123.045 25.0722 122.289 25.2031 121.432 25.2031Z" fill="#4F46E5"/>
<path d="M2.6665 21.3333V5.33329C2.6665 4.62605 2.94746 3.94777 3.44755 3.44767C3.94765 2.94758 4.62593 2.66663 5.33317 2.66663H19.9998" stroke="#4F46E5" stroke-width="2.66667" stroke-linecap="round" stroke-linejoin="round"/>
<path d="M6.6665 18.6666H5.33317C4.62593 18.6666 3.94765 18.9476 3.44755 19.4477C2.94746 19.9478 2.6665 20.626 2.6665 21.3333C2.6665 22.0405 2.94746 22.7188 3.44755 23.2189C3.94765 23.719 4.62593 24 5.33317 24H6.6665" stroke="#4F46E5" stroke-width="2.66667" stroke-linecap="round" stroke-linejoin="round"/>
<path d="M29.3333 24H14.6667C13.9594 24 13.2811 24.281 12.781 24.781C12.281 25.2811 12 25.9594 12 26.6667M12 26.6667C12 27.3739 12.281 28.0522 12.781 28.5523C13.2811 29.0524 13.9594 29.3333 14.6667 29.3333H29.3333V8H14.6667C13.9594 8 13.2811 8.28095 12.781 8.78105C12.281 9.28115 12 9.95942 12 10.6667V26.6667Z" stroke="#4F46E5" stroke-width="2.66667" stroke-linecap="round" stroke-linejoin="round"/>
<path d="M3.6665 21.3333V5.33329C3.6665 4.62605 3.94746 3.94777 4.44755 3.44767C4.94765 2.94758 5.62593 2.66663 6.33317 2.66663H20.9998" stroke="#4F46E5" stroke-width="2.66667" stroke-linecap="round" stroke-linejoin="round"/>
<path d="M7.6665 18.6666H6.33317C5.62593 18.6666 4.94765 18.9476 4.44755 19.4477C3.94746 19.9478 3.6665 20.626 3.6665 21.3333C3.6665 22.0405 3.94746 22.7188 4.44755 23.2189C4.94765 23.719 5.62593 24 6.33317 24H7.6665" stroke="#4F46E5" stroke-width="2.66667" stroke-linecap="round" stroke-linejoin="round"/>
<path d="M30.3333 24H15.6667C14.9594 24 14.2811 24.281 13.781 24.781C13.281 25.2811 13 25.9594 13 26.6667M13 26.6667C13 27.3739 13.281 28.0522 13.781 28.5523C14.2811 29.0524 14.9594 29.3333 15.6667 29.3333H30.3333V8H15.6667C14.9594 8 14.2811 8.28095 13.781 8.78105C13.281 9.28115 13 9.95942 13 10.6667V26.6667Z" stroke="#4F46E5" stroke-width="2.66667" stroke-linecap="round" stroke-linejoin="round"/>
<rect x="20" y="20" width="16" height="16" rx="8" fill="#C7D2FE"/>
<rect x="24" y="24" width="8" height="8" rx="4" fill="#4F46E5"/>
</svg>
