<svg width="165" height="36" viewBox="0 0 165 36" fill="none" xmlns="http://www.w3.org/2000/svg">
<path d="M46.1195 25H41.2049V11.1364H46.1601C47.5546 11.1364 48.755 11.4139 49.7614 11.969C50.7678 12.5196 51.5417 13.3116 52.0833 14.345C52.6294 15.3785 52.9024 16.615 52.9024 18.0546C52.9024 19.4988 52.6294 20.7398 52.0833 21.7778C51.5417 22.8158 50.7633 23.6123 49.7479 24.1674C48.737 24.7225 47.5275 25 46.1195 25ZM44.1361 22.4886H45.9976C46.8641 22.4886 47.593 22.3351 48.1841 22.0283C48.7799 21.7169 49.2266 21.2362 49.5245 20.5864C49.8268 19.932 49.978 19.0881 49.978 18.0546C49.978 17.0302 49.8268 16.1931 49.5245 15.5432C49.2266 14.8934 48.7821 14.415 48.1909 14.1081C47.5997 13.8012 46.8709 13.6478 46.0044 13.6478H44.1361V22.4886ZM59.7174 25.2031C58.6659 25.2031 57.7566 24.9797 56.9894 24.5329C56.2267 24.0816 55.6378 23.4543 55.2226 22.651C54.8074 21.8432 54.5998 20.9068 54.5998 19.8418C54.5998 18.7677 54.8074 17.829 55.2226 17.0257C55.6378 16.2179 56.2267 15.5906 56.9894 15.1438C57.7566 14.6925 58.6659 14.4669 59.7174 14.4669C60.7689 14.4669 61.676 14.6925 62.4387 15.1438C63.2059 15.5906 63.7971 16.2179 64.2123 17.0257C64.6275 17.829 64.8351 18.7677 64.8351 19.8418C64.8351 20.9068 64.6275 21.8432 64.2123 22.651C63.7971 23.4543 63.2059 24.0816 62.4387 24.5329C61.676 24.9797 60.7689 25.2031 59.7174 25.2031ZM59.731 22.9692C60.2093 22.9692 60.6087 22.8338 60.9291 22.563C61.2496 22.2877 61.491 21.9132 61.6535 21.4393C61.8204 20.9655 61.9039 20.4262 61.9039 19.8214C61.9039 19.2167 61.8204 18.6774 61.6535 18.2036C61.491 17.7297 61.2496 17.3551 60.9291 17.0799C60.6087 16.8046 60.2093 16.6669 59.731 16.6669C59.2481 16.6669 58.8419 16.8046 58.5125 17.0799C58.1876 17.3551 57.9416 17.7297 57.7746 18.2036C57.6122 18.6774 57.5309 19.2167 57.5309 19.8214C57.5309 20.4262 57.6122 20.9655 57.7746 21.4393C57.9416 21.9132 58.1876 22.2877 58.5125 22.563C58.8419 22.8338 59.2481 22.9692 59.731 22.9692ZM71.4081 25.2031C70.3431 25.2031 69.4269 24.9774 68.6598 24.5261C67.8971 24.0703 67.3104 23.4385 66.8997 22.6307C66.4936 21.8229 66.2905 20.8933 66.2905 19.8418C66.2905 18.7767 66.4958 17.8425 66.9065 17.0392C67.3217 16.2314 67.9106 15.6019 68.6733 15.1506C69.436 14.6948 70.3431 14.4669 71.3946 14.4669C72.3017 14.4669 73.0959 14.6316 73.7774 14.961C74.4588 15.2905 74.9981 15.7531 75.3953 16.3488C75.7924 16.9445 76.0113 17.644 76.0519 18.4473H73.3306C73.2539 17.9283 73.0508 17.5108 72.7214 17.1949C72.3964 16.8745 71.97 16.7143 71.442 16.7143C70.9952 16.7143 70.6048 16.8362 70.2709 17.0799C69.9414 17.319 69.6842 17.6688 69.4992 18.1291C69.3141 18.5894 69.2216 19.1468 69.2216 19.8011C69.2216 20.4645 69.3119 21.0286 69.4924 21.4935C69.6774 21.9583 69.9369 22.3126 70.2709 22.5563C70.6048 22.8 70.9952 22.9218 71.442 22.9218C71.7714 22.9218 72.067 22.8541 72.3287 22.7187C72.595 22.5833 72.8139 22.387 72.9854 22.1298C73.1614 21.868 73.2765 21.5544 73.3306 21.1889H76.0519C76.0068 21.9831 75.7901 22.6826 75.402 23.2874C75.0184 23.8876 74.4882 24.3569 73.8112 24.6954C73.1343 25.0338 72.3333 25.2031 71.4081 25.2031ZM84.566 20.5728V14.6023H87.4498V25H84.6811V23.1114H84.5728C84.3381 23.7206 83.9478 24.2102 83.4017 24.5803C82.8602 24.9504 82.199 25.1354 81.4183 25.1354C80.7233 25.1354 80.1118 24.9774 79.5838 24.6615C79.0558 24.3456 78.6429 23.8966 78.345 23.3144C78.0517 22.7323 77.9027 22.035 77.8982 21.2227V14.6023H80.782V20.7082C80.7865 21.322 80.9512 21.8071 81.2761 22.1636C81.6011 22.5202 82.0366 22.6984 82.5826 22.6984C82.9301 22.6984 83.255 22.6194 83.5574 22.4615C83.8598 22.299 84.1035 22.0598 84.2885 21.7439C84.478 21.428 84.5706 21.0377 84.566 20.5728ZM89.7564 25V14.6023H92.5048V16.4368H92.6266C92.8433 15.8275 93.2043 15.3469 93.7097 14.9949C94.2152 14.6429 94.8199 14.4669 95.5239 14.4669C96.237 14.4669 96.844 14.6451 97.3449 15.0017C97.8458 15.3537 98.1798 15.832 98.3468 16.4368H98.4551C98.6672 15.8411 99.0508 15.365 99.6059 15.0084C100.165 14.6474 100.827 14.4669 101.589 14.4669C102.56 14.4669 103.347 14.776 103.952 15.3943C104.561 16.008 104.866 16.879 104.866 18.0073V25H101.989V18.5759C101.989 17.9982 101.835 17.565 101.528 17.2762C101.221 16.9873 100.838 16.8429 100.378 16.8429C99.8541 16.8429 99.4456 17.0099 99.1523 17.3439C98.859 17.6733 98.7123 18.1088 98.7123 18.6503V25H95.9166V18.515C95.9166 18.005 95.7699 17.5988 95.4765 17.2965C95.1877 16.9941 94.8064 16.8429 94.3325 16.8429C94.0121 16.8429 93.7233 16.9242 93.466 17.0866C93.2133 17.2446 93.0125 17.468 92.8636 17.7568C92.7146 18.0411 92.6402 18.3751 92.6402 18.7587V25H89.7564ZM111.882 25.2031C110.813 25.2031 109.892 24.9865 109.12 24.5532C108.353 24.1155 107.762 23.4972 107.347 22.6984C106.931 21.8951 106.724 20.9452 106.724 19.8485C106.724 18.779 106.931 17.8403 107.347 17.0325C107.762 16.2247 108.346 15.5951 109.1 15.1438C109.858 14.6925 110.747 14.4669 111.767 14.4669C112.453 14.4669 113.092 14.5775 113.683 14.7986C114.278 15.0152 114.797 15.3424 115.24 15.7801C115.686 16.2179 116.034 16.7685 116.282 17.4319C116.53 18.0907 116.654 18.8625 116.654 19.747V20.539H107.875V18.7519H113.94C113.94 18.3367 113.85 17.9689 113.669 17.6485C113.489 17.3281 113.238 17.0776 112.918 16.8971C112.602 16.7121 112.234 16.6195 111.814 16.6195C111.377 16.6195 110.989 16.7211 110.65 16.9242C110.316 17.1227 110.054 17.3912 109.865 17.7297C109.675 18.0637 109.578 18.436 109.574 18.8467V20.5458C109.574 21.0602 109.668 21.5048 109.858 21.8793C110.052 22.2539 110.325 22.5427 110.677 22.7458C111.029 22.9489 111.447 23.0504 111.929 23.0504C112.25 23.0504 112.543 23.0053 112.809 22.915C113.076 22.8248 113.304 22.6894 113.493 22.5089C113.683 22.3284 113.827 22.1072 113.926 21.8455L116.594 22.0215C116.458 22.6623 116.181 23.2219 115.761 23.7003C115.346 24.1741 114.809 24.5442 114.15 24.8105C113.495 25.0722 112.74 25.2031 111.882 25.2031ZM121.42 18.9888V25H118.536V14.6023H121.285V16.4368H121.407C121.637 15.832 122.023 15.3537 122.564 15.0017C123.106 14.6451 123.762 14.4669 124.534 14.4669C125.256 14.4669 125.886 14.6248 126.423 14.9407C126.96 15.2566 127.377 15.7079 127.675 16.2946C127.973 16.8768 128.122 17.5718 128.122 18.3796V25H125.238V18.894C125.243 18.2577 125.08 17.7613 124.751 17.4048C124.421 17.0438 123.968 16.8632 123.39 16.8632C123.002 16.8632 122.659 16.9467 122.361 17.1137C122.068 17.2807 121.838 17.5244 121.671 17.8448C121.508 18.1607 121.425 18.542 121.42 18.9888ZM135.925 14.6023V16.7685H129.663V14.6023H135.925ZM131.085 12.1112H133.969V21.8049C133.969 22.0711 134.009 22.2787 134.091 22.4276C134.172 22.5721 134.285 22.6736 134.429 22.7323C134.578 22.7909 134.75 22.8203 134.944 22.8203C135.079 22.8203 135.214 22.809 135.35 22.7864C135.485 22.7593 135.589 22.739 135.661 22.7255L136.115 24.8714C135.97 24.9165 135.767 24.9684 135.505 25.0271C135.244 25.0903 134.926 25.1286 134.551 25.1422C133.856 25.1692 133.247 25.0767 132.723 24.8646C132.204 24.6525 131.8 24.3231 131.512 23.8763C131.223 23.4295 131.081 22.8654 131.085 22.1839V12.1112ZM138.081 25V11.1364H141.012V22.5833H146.956V25H138.081ZM148.897 11.1364H152.512L156.33 20.451H156.492L160.31 11.1364H163.925V25H161.082V15.9765H160.967L157.379 24.9323H155.443L151.855 15.9426H151.74V25H148.897V11.1364Z" fill="white"/>
<path d="M2.6665 21.3333V5.33329C2.6665 4.62605 2.94746 3.94777 3.44755 3.44767C3.94765 2.94758 4.62593 2.66663 5.33317 2.66663H19.9998" stroke="#4F46E5" stroke-width="2.66667" stroke-linecap="round" stroke-linejoin="round"/>
<path d="M6.6665 18.6666H5.33317C4.62593 18.6666 3.94765 18.9476 3.44755 19.4477C2.94746 19.9478 2.6665 20.626 2.6665 21.3333C2.6665 22.0405 2.94746 22.7188 3.44755 23.2189C3.94765 23.719 4.62593 24 5.33317 24H6.6665" stroke="#4F46E5" stroke-width="2.66667" stroke-linecap="round" stroke-linejoin="round"/>
<path d="M29.3333 24H14.6667C13.9594 24 13.2811 24.281 12.781 24.781C12.281 25.2811 12 25.9594 12 26.6667M12 26.6667C12 27.3739 12.281 28.0522 12.781 28.5523C13.2811 29.0524 13.9594 29.3333 14.6667 29.3333H29.3333V8H14.6667C13.9594 8 13.2811 8.28095 12.781 8.78105C12.281 9.28115 12 9.95942 12 10.6667V26.6667Z" stroke="#4F46E5" stroke-width="2.66667" stroke-linecap="round" stroke-linejoin="round"/>
<path d="M3.6665 21.3333V5.33329C3.6665 4.62605 3.94746 3.94777 4.44755 3.44767C4.94765 2.94758 5.62593 2.66663 6.33317 2.66663H20.9998" stroke="#4F46E5" stroke-width="2.66667" stroke-linecap="round" stroke-linejoin="round"/>
<path d="M7.6665 18.6666H6.33317C5.62593 18.6666 4.94765 18.9476 4.44755 19.4477C3.94746 19.9478 3.6665 20.626 3.6665 21.3333C3.6665 22.0405 3.94746 22.7188 4.44755 23.2189C4.94765 23.719 5.62593 24 6.33317 24H7.6665" stroke="#4F46E5" stroke-width="2.66667" stroke-linecap="round" stroke-linejoin="round"/>
<path d="M30.3333 24H15.6667C14.9594 24 14.2811 24.281 13.781 24.781C13.281 25.2811 13 25.9594 13 26.6667M13 26.6667C13 27.3739 13.281 28.0522 13.781 28.5523C14.2811 29.0524 14.9594 29.3333 15.6667 29.3333H30.3333V8H15.6667C14.9594 8 14.2811 8.28095 13.781 8.78105C13.281 9.28115 13 9.95942 13 10.6667V26.6667Z" stroke="#4F46E5" stroke-width="2.66667" stroke-linecap="round" stroke-linejoin="round"/>
<rect x="20" y="20" width="16" height="16" rx="8" fill="#C7D2FE"/>
<rect x="24" y="24" width="8" height="8" rx="4" fill="#4F46E5"/>
</svg>
